<?xml version="1.0" encoding="UTF-8" standalone="no"?>
<!-- This is a Stata 17.0 generated SVG file (http://www.stata.com) -->

<svg version="1.1" width="6.000in" height="4.000in" viewBox="0 0 4320 2880" xmlns="http://www.w3.org/2000/svg" xmlns:xlink="http://www.w3.org/1999/xlink">
	<desc>Stata Graph - Graph</desc>
	<rect x="0" y="0" width="4320" height="2880" style="fill:#FFFFFF;stroke:none"/>
	<rect x="0.00" y="0.00" width="4320.00" height="2880.00" style="fill:#FFFFFF"/>
	<rect x="2.88" y="2.88" width="4314.24" height="2874.24" style="fill:none;stroke:#FFFFFF;stroke-width:5.76"/>
	<rect x="544.86" y="309.96" width="3674.29" height="2100.09" style="fill:#FFFFFF"/>
	<rect x="547.74" y="312.84" width="3668.54" height="2094.33" style="fill:none;stroke:#FFFFFF;stroke-width:5.76"/>
	<line x1="544.86" y1="2410.06" x2="4219.16" y2="2410.06" style="stroke:#000000;stroke-width:3.00"/>
	<line x1="544.86" y1="2026.52" x2="4219.16" y2="2026.52" style="stroke:#000000;stroke-width:3.00"/>
	<line x1="544.86" y1="1642.98" x2="4219.16" y2="1642.98" style="stroke:#000000;stroke-width:3.00"/>
	<line x1="544.86" y1="1259.43" x2="4219.16" y2="1259.43" style="stroke:#000000;stroke-width:3.00"/>
	<line x1="544.86" y1="875.89" x2="4219.16" y2="875.89" style="stroke:#000000;stroke-width:3.00"/>
	<line x1="544.86" y1="492.35" x2="4219.16" y2="492.35" style="stroke:#000000;stroke-width:3.00"/>
	<rect x="942.98" y="2400.61" width="82.35" height="9.45" style="fill:#00274C;fill-opacity:0.50"/>
	<rect x="946.57" y="2404.21" width="75.15" height="2.25" style="fill:none;stroke:#000000;stroke-width:7.20"/>
	<rect x="1025.33" y="2406.95" width="82.35" height="3.11" style="fill:#00274C;fill-opacity:0.50"/>
	<rect x="1028.92" y="2406.46" width="75.15" height="4.09" style="fill:none;stroke:#000000;stroke-width:7.20"/>
	<rect x="1107.68" y="2406.95" width="82.49" height="3.11" style="fill:#00274C;fill-opacity:0.50"/>
	<rect x="1111.27" y="2406.46" width="75.29" height="4.09" style="fill:none;stroke:#000000;stroke-width:7.20"/>
	<rect x="1190.16" y="2406.95" width="82.35" height="3.11" style="fill:#00274C;fill-opacity:0.50"/>
	<rect x="1193.76" y="2406.46" width="75.15" height="4.09" style="fill:none;stroke:#000000;stroke-width:7.20"/>
	<rect x="1272.51" y="2403.85" width="82.35" height="6.21" style="fill:#00274C;fill-opacity:0.50"/>
	<rect x="1276.11" y="2406.46" width="75.15" height="0.99" style="fill:none;stroke:#000000;stroke-width:7.20"/>
	<rect x="1354.86" y="2406.95" width="82.35" height="3.11" style="fill:#00274C;fill-opacity:0.50"/>
	<rect x="1358.46" y="2406.46" width="75.15" height="4.09" style="fill:none;stroke:#000000;stroke-width:7.20"/>
	<rect x="1437.21" y="2403.85" width="82.35" height="6.21" style="fill:#00274C;fill-opacity:0.50"/>
	<rect x="1440.81" y="2406.46" width="75.15" height="0.99" style="fill:none;stroke:#000000;stroke-width:7.20"/>
	<rect x="1519.56" y="2381.71" width="82.49" height="28.35" style="fill:#00274C;fill-opacity:0.50"/>
	<rect x="1523.16" y="2385.31" width="75.29" height="21.15" style="fill:none;stroke:#000000;stroke-width:7.20"/>
	<rect x="1602.05" y="2359.70" width="82.35" height="50.36" style="fill:#00274C;fill-opacity:0.50"/>
	<rect x="1605.64" y="2363.30" width="75.15" height="43.16" style="fill:none;stroke:#000000;stroke-width:7.20"/>
	<rect x="1684.40" y="2350.12" width="82.35" height="59.94" style="fill:#00274C;fill-opacity:0.50"/>
	<rect x="1687.99" y="2353.72" width="75.15" height="52.74" style="fill:none;stroke:#000000;stroke-width:7.20"/>
	<rect x="1766.75" y="2350.12" width="82.35" height="59.94" style="fill:#00274C;fill-opacity:0.50"/>
	<rect x="1770.34" y="2353.72" width="75.15" height="52.74" style="fill:none;stroke:#000000;stroke-width:7.20"/>
	<rect x="1849.10" y="2217.81" width="82.48" height="192.24" style="fill:#00274C;fill-opacity:0.50"/>
	<rect x="1852.69" y="2221.41" width="75.29" height="185.04" style="fill:none;stroke:#000000;stroke-width:7.20"/>
	<rect x="1931.58" y="2053.79" width="82.35" height="356.27" style="fill:#00274C;fill-opacity:0.50"/>
	<rect x="1935.18" y="2057.39" width="75.15" height="349.07" style="fill:none;stroke:#000000;stroke-width:7.20"/>
	<rect x="2013.93" y="1978.19" width="82.35" height="431.87" style="fill:#00274C;fill-opacity:0.50"/>
	<rect x="2017.53" y="1981.79" width="75.15" height="424.67" style="fill:none;stroke:#000000;stroke-width:7.20"/>
	<rect x="2096.28" y="2053.79" width="82.35" height="356.27" style="fill:#00274C;fill-opacity:0.50"/>
	<rect x="2099.88" y="2057.39" width="75.15" height="349.07" style="fill:none;stroke:#000000;stroke-width:7.20"/>
	<rect x="2178.63" y="1864.65" width="82.35" height="545.41" style="fill:#00274C;fill-opacity:0.50"/>
	<rect x="2182.23" y="1868.25" width="75.15" height="538.21" style="fill:none;stroke:#000000;stroke-width:7.20"/>
	<rect x="2260.98" y="1889.89" width="82.49" height="520.16" style="fill:#00274C;fill-opacity:0.50"/>
	<rect x="2264.58" y="1893.49" width="75.29" height="512.96" style="fill:none;stroke:#000000;stroke-width:7.20"/>
	<rect x="2343.47" y="1880.44" width="82.35" height="529.61" style="fill:#00274C;fill-opacity:0.50"/>
	<rect x="2347.06" y="1884.04" width="75.15" height="522.41" style="fill:none;stroke:#000000;stroke-width:7.20"/>
	<rect x="2425.82" y="1836.30" width="82.35" height="573.76" style="fill:#00274C;fill-opacity:0.50"/>
	<rect x="2429.41" y="1839.90" width="75.15" height="566.56" style="fill:none;stroke:#000000;stroke-width:7.20"/>
	<rect x="2508.17" y="1864.65" width="82.35" height="545.41" style="fill:#00274C;fill-opacity:0.50"/>
	<rect x="2511.76" y="1868.25" width="75.15" height="538.21" style="fill:none;stroke:#000000;stroke-width:7.20"/>
	<rect x="2590.52" y="1713.31" width="82.49" height="696.75" style="fill:#00274C;fill-opacity:0.50"/>
	<rect x="2594.11" y="1716.91" width="75.29" height="689.55" style="fill:none;stroke:#000000;stroke-width:7.20"/>
	<rect x="2673.00" y="1672.27" width="82.35" height="737.79" style="fill:#00274C;fill-opacity:0.50"/>
	<rect x="2676.60" y="1675.87" width="75.15" height="730.59" style="fill:none;stroke:#000000;stroke-width:7.20"/>
	<rect x="2755.35" y="1637.58" width="82.35" height="772.48" style="fill:#00274C;fill-opacity:0.50"/>
	<rect x="2758.95" y="1641.18" width="75.15" height="765.28" style="fill:none;stroke:#000000;stroke-width:7.20"/>
	<rect x="2837.70" y="1785.81" width="82.35" height="624.25" style="fill:#00274C;fill-opacity:0.50"/>
	<rect x="2841.30" y="1789.41" width="75.15" height="617.05" style="fill:none;stroke:#000000;stroke-width:7.20"/>
	<rect x="2920.05" y="1615.57" width="82.35" height="794.49" style="fill:#00274C;fill-opacity:0.50"/>
	<rect x="2923.65" y="1619.17" width="75.15" height="787.29" style="fill:none;stroke:#000000;stroke-width:7.20"/>
	<rect x="3002.40" y="1536.73" width="82.49" height="873.33" style="fill:#00274C;fill-opacity:0.50"/>
	<rect x="3006.00" y="1540.33" width="75.29" height="866.13" style="fill:none;stroke:#000000;stroke-width:7.20"/>
	<rect x="3084.89" y="1338.14" width="82.35" height="1071.92" style="fill:#00274C;fill-opacity:0.50"/>
	<rect x="3088.48" y="1341.74" width="75.15" height="1064.72" style="fill:none;stroke:#000000;stroke-width:7.20"/>
	<rect x="3167.24" y="1044.92" width="82.35" height="1365.14" style="fill:#00274C;fill-opacity:0.50"/>
	<rect x="3170.83" y="1048.52" width="75.15" height="1357.94" style="fill:none;stroke:#000000;stroke-width:7.20"/>
	<rect x="3249.59" y="568.76" width="82.35" height="1841.29" style="fill:#00274C;fill-opacity:0.50"/>
	<rect x="3253.18" y="572.36" width="75.15" height="1834.09" style="fill:none;stroke:#000000;stroke-width:7.20"/>
	<rect x="3331.94" y="373.28" width="82.49" height="2036.78" style="fill:#00274C;fill-opacity:0.50"/>
	<rect x="3335.53" y="376.88" width="75.29" height="2029.58" style="fill:none;stroke:#000000;stroke-width:7.20"/>
	<rect x="3414.42" y="534.07" width="82.35" height="1875.99" style="fill:#00274C;fill-opacity:0.50"/>
	<rect x="3418.02" y="537.67" width="75.15" height="1868.79" style="fill:none;stroke:#000000;stroke-width:7.20"/>
	<rect x="3496.77" y="414.32" width="82.35" height="1995.74" style="fill:#00274C;fill-opacity:0.50"/>
	<rect x="3500.37" y="417.92" width="75.15" height="1988.54" style="fill:none;stroke:#000000;stroke-width:7.20"/>
	<rect x="3579.12" y="631.81" width="82.35" height="1778.25" style="fill:#00274C;fill-opacity:0.50"/>
	<rect x="3582.72" y="635.41" width="75.15" height="1771.05" style="fill:none;stroke:#000000;stroke-width:7.20"/>
	<rect x="3661.47" y="934.48" width="82.35" height="1475.57" style="fill:#00274C;fill-opacity:0.50"/>
	<rect x="3665.07" y="938.08" width="75.15" height="1468.37" style="fill:none;stroke:#000000;stroke-width:7.20"/>
	<rect x="3743.82" y="1227.71" width="82.48" height="1182.35" style="fill:#00274C;fill-opacity:0.50"/>
	<rect x="3747.42" y="1231.31" width="75.29" height="1175.15" style="fill:none;stroke:#000000;stroke-width:7.20"/>
	<rect x="3826.31" y="1681.72" width="82.35" height="728.34" style="fill:#00274C;fill-opacity:0.50"/>
	<rect x="3829.90" y="1685.32" width="75.15" height="721.14" style="fill:none;stroke:#000000;stroke-width:7.20"/>
	<rect x="3908.66" y="1659.72" width="82.35" height="750.34" style="fill:#00274C;fill-opacity:0.50"/>
	<rect x="3912.25" y="1663.32" width="75.15" height="743.14" style="fill:none;stroke:#000000;stroke-width:7.20"/>
	<rect x="3991.01" y="2091.59" width="82.35" height="318.47" style="fill:#00274C;fill-opacity:0.50"/>
	<rect x="3994.60" y="2095.19" width="75.15" height="311.27" style="fill:none;stroke:#000000;stroke-width:7.20"/>
	<rect x="4073.36" y="2365.91" width="82.49" height="44.15" style="fill:#00274C;fill-opacity:0.50"/>
	<rect x="4076.95" y="2369.51" width="75.29" height="36.95" style="fill:none;stroke:#000000;stroke-width:7.20"/>
	<line x1="544.86" y1="2410.06" x2="544.86" y2="309.96" style="stroke:#000000;stroke-width:5.76"/>
	<line x1="544.86" y1="2410.06" x2="504.90" y2="2410.06" style="stroke:#000000;stroke-width:5.76"/>
	<text x="484.92" y="2445.10" style="font-family:'Helvetica';font-size:100.04px;fill:#000000" text-anchor="end">0</text>
	<line x1="544.86" y1="2026.52" x2="504.90" y2="2026.52" style="stroke:#000000;stroke-width:5.76"/>
	<text x="484.92" y="2061.56" style="font-family:'Helvetica';font-size:100.04px;fill:#000000" text-anchor="end">.01</text>
	<line x1="544.86" y1="1642.98" x2="504.90" y2="1642.98" style="stroke:#000000;stroke-width:5.76"/>
	<text x="484.92" y="1678.02" style="font-family:'Helvetica';font-size:100.04px;fill:#000000" text-anchor="end">.02</text>
	<line x1="544.86" y1="1259.43" x2="504.90" y2="1259.43" style="stroke:#000000;stroke-width:5.76"/>
	<text x="484.92" y="1294.48" style="font-family:'Helvetica';font-size:100.04px;fill:#000000" text-anchor="end">.03</text>
	<line x1="544.86" y1="875.89" x2="504.90" y2="875.89" style="stroke:#000000;stroke-width:5.76"/>
	<text x="484.92" y="910.94" style="font-family:'Helvetica';font-size:100.04px;fill:#000000" text-anchor="end">.04</text>
	<line x1="544.86" y1="492.35" x2="504.90" y2="492.35" style="stroke:#000000;stroke-width:5.76"/>
	<text x="484.92" y="527.40" style="font-family:'Helvetica';font-size:100.04px;fill:#000000" text-anchor="end">.05</text>
	<text x="232.34" y="1360.01" style="font-family:'Helvetica';font-size:110.03px;fill:#000000" transform="rotate(-90 232.34,1360.01)" text-anchor="middle">Density</text>
	<line x1="544.86" y1="2410.06" x2="4219.16" y2="2410.06" style="stroke:#000000;stroke-width:5.76"/>
	<line x1="608.31" y1="2410.06" x2="608.31" y2="2450.02" style="stroke:#000000;stroke-width:5.76"/>
	<text x="608.31" y="2540.09" style="font-family:'Helvetica';font-size:100.04px;fill:#000000" text-anchor="middle">20</text>
	<line x1="1692.90" y1="2410.06" x2="1692.90" y2="2450.02" style="stroke:#000000;stroke-width:5.76"/>
	<text x="1692.90" y="2540.09" style="font-family:'Helvetica';font-size:100.04px;fill:#000000" text-anchor="middle">40</text>
	<line x1="2777.49" y1="2410.06" x2="2777.49" y2="2450.02" style="stroke:#000000;stroke-width:5.76"/>
	<text x="2777.49" y="2540.09" style="font-family:'Helvetica';font-size:100.04px;fill:#000000" text-anchor="middle">60</text>
	<line x1="3861.95" y1="2410.06" x2="3861.95" y2="2450.02" style="stroke:#000000;stroke-width:5.76"/>
	<text x="3861.95" y="2540.09" style="font-family:'Helvetica';font-size:100.04px;fill:#000000" text-anchor="middle">80</text>
	<text x="2382.07" y="2691.54" style="font-family:'Helvetica';font-size:110.03px;fill:#000000" text-anchor="middle">Life expectancy at birth, total (years)</text>
	<text x="2382.07" y="233.34" style="font-family:'Helvetica';font-size:140.00px;fill:#000000" text-anchor="middle">Life Expectancy at Birth</text>
</svg>
